<svg id="Capa_1" data-name="Capa 1" xmlns="http://www.w3.org/2000/svg" viewBox="0 0 1920 600"><defs><style>.cls-1{fill:#fff;}</style></defs><g id="TRY"><path class="cls-1" d="M767.48,247.06h12.38V347.79H767.48Z"/><g id="y"><path class="cls-1" d="M640.69,337.42q-24.11,24.1-57.92,24.09t-57.93-24.09q-24.11-24.09-24.09-57.92v-82h41v82a41,41,0,0,0,82,0v-82h41v82Q664.78,313.33,640.69,337.42ZM500.75,361.51h41a41,41,0,0,0,82,0h41q0,33.84-24.09,57.93t-57.92,24.09q-33.84,0-57.93-24.09T500.75,361.51Z"/></g><path id="r" class="cls-1" d="M444.59,197.48q-33.76,0-57.8,24.09t-24,57.92v123h41v-123a41.11,41.11,0,0,1,41-41h41v-41Z"/><g id="t"><path class="cls-1" d="M282.59,214.39q-24.1,24.11-57.93,24.1v-41a41.12,41.12,0,0,0,41-41h41Q306.68,190.3,282.59,214.39Zm7.18,7.18q24.09-24.09,57.92-24.09v41a41.12,41.12,0,0,0-41,41v41a41.12,41.12,0,0,0,41,41v41q-33.82,0-57.92-24.09t-24.1-57.93v-41Q265.67,245.66,289.77,221.57Z"/></g><g id="ISOTIPO"><path class="cls-1" d="M117.56,218.47H62.81a52.74,52.74,0,0,1-16.08,38.66A52.68,52.68,0,0,1,8.07,273.21V328q45.17,0,77.33-32.16T117.56,218.47Z"/><path class="cls-1" d="M172.3,328V273.21q-45.17,0-77.32,32.17-31.76,31.75-32.15,76.15h54.75A54.89,54.89,0,0,1,172.3,328Z"/></g><path class="cls-1" d="M894.62,327.68c-3.1,2.49-7.76,3.73-12.41,3.73-12.11,0-19-6.42-19-18.62V263.24H876.1v12.62h14.8V286.2H876.1v26.28c0,5.38,2.8,8.27,7.66,8.27a11.64,11.64,0,0,0,7.24-2.27Z"/><path class="cls-1" d="M941.48,314.44l6.83,8c-4.87,5.89-12.62,9-22.14,9-18.52,0-30.52-11.9-30.52-28.34s12-28.24,28.45-28.24c15.41,0,27.83,10.34,27.93,27.61l-42.31,8.28c2.69,6.31,8.69,9.72,16.76,9.72A19.94,19.94,0,0,0,941.48,314.44Zm-33.31-12.1v.1l31.24-6c-1.76-6.73-7.55-11.28-15.31-11.28C914.69,285.17,908.17,291.79,908.17,302.34Z"/><path class="cls-1" d="M956.68,303.07c0-16.55,12.42-28.24,29.9-28.24,10.75,0,19.34,4.44,23.58,12.82l-9.93,5.8a15.62,15.62,0,0,0-13.76-7.66c-9.51,0-16.75,6.62-16.75,17.28s7.24,17.27,16.75,17.27a15.62,15.62,0,0,0,13.76-7.66l9.93,5.8c-4.24,8.27-12.83,12.93-23.58,12.93C969.1,331.41,956.68,319.62,956.68,303.07Z"/><path class="cls-1" d="M1072.54,299v31.65h-12.93v-30c0-9.83-4.86-14.59-13.14-14.59-9.21,0-15.41,5.59-15.41,16.65v27.93h-12.93V275.45h12.31v7.13c4.24-5.06,11-7.75,19-7.75C1062.71,274.83,1072.54,282.38,1072.54,299Z"/><path class="cls-1" d="M1081.74,303.07c0-16.55,12.42-28.24,29.38-28.24,17.17,0,29.48,11.69,29.48,28.24s-12.31,28.34-29.48,28.34C1094.16,331.41,1081.74,319.62,1081.74,303.07Zm45.83,0c0-10.56-7-17.28-16.45-17.28s-16.34,6.72-16.34,17.28,7,17.27,16.34,17.27S1127.57,313.62,1127.57,303.07Z"/><path class="cls-1" d="M1149.81,313.41V253.93h12.93v58.55c0,5.38,2.58,8.27,7.75,8.27a11.48,11.48,0,0,0,4.66-1l.62,10.34a22.29,22.29,0,0,1-7.76,1.35C1156.53,331.41,1149.81,324.89,1149.81,313.41Z"/><path class="cls-1" d="M1175.77,303.07c0-16.55,12.41-28.24,29.38-28.24,17.17,0,29.48,11.69,29.48,28.24s-12.31,28.34-29.48,28.34C1188.18,331.41,1175.77,319.62,1175.77,303.07Zm45.82,0c0-10.56-7-17.28-16.44-17.28s-16.35,6.72-16.35,17.28,7,17.27,16.35,17.27S1221.59,313.62,1221.59,303.07Z"/><path class="cls-1" d="M1298.66,275.45V322.3c0,20.07-10.45,29.17-29.79,29.17-10.35,0-20.59-2.68-26.9-7.86l5.8-9.72c4.86,4,12.72,6.62,20.37,6.62,12.21,0,17.59-5.59,17.59-16.76v-2.89c-4.55,5-11.07,7.34-18.52,7.34-15.82,0-27.93-10.76-27.93-26.79s12.11-26.58,27.93-26.58c7.76,0,14.59,2.48,19.14,8v-7.34Zm-12.73,26c0-9.31-7-15.62-16.75-15.62s-16.86,6.31-16.86,15.62,7,15.83,16.86,15.83S1285.93,310.82,1285.93,301.41Z"/><path class="cls-1" d="M1324.21,253.72h15.2l-18,14.18h-11.17Zm-11.79,21.73h12.92v55.23h-12.92Z"/><path class="cls-1" d="M1393.1,275.45v55.23h-12.31v-7.13c-4.35,5.27-10.76,7.86-18.31,7.86-16.14,0-27.93-11.17-27.93-28.34s11.79-28.24,27.93-28.24c7,0,13.24,2.38,17.69,7.34v-6.72Zm-12.73,27.62c0-10.56-7-17.28-16.44-17.28s-16.35,6.72-16.35,17.28,7,17.27,16.35,17.27S1380.37,313.62,1380.37,303.07Z"/><path class="cls-1" d="M1486.19,275.45v55.23h-12.31v-7.13c-4.34,5.27-10.76,7.86-18.31,7.86-16.13,0-27.93-11.17-27.93-28.34s11.8-28.24,27.93-28.24c7,0,13.24,2.38,17.69,7.34v-6.72Zm-12.72,27.62c0-10.56-7-17.28-16.45-17.28s-16.34,6.72-16.34,17.28,7,17.27,16.34,17.27S1473.47,313.62,1473.47,303.07Z"/><path class="cls-1" d="M1578.77,275.45v55.23h-12.31v-7c-4.14,5.07-10.65,7.76-17.79,7.76-14.17,0-23.79-7.76-23.79-24.41V275.45h12.93v29.79c0,10,4.76,14.79,12.93,14.79,9,0,15.1-5.59,15.1-16.65V275.45Z"/><path class="cls-1" d="M1646.94,299v31.65H1634v-30c0-9.83-4.86-14.59-13.14-14.59-9.21,0-15.41,5.59-15.41,16.65v27.93h-12.93V275.45h12.31v7.13c4.24-5.06,11-7.75,19-7.75C1637.11,274.83,1646.94,282.38,1646.94,299Z"/><path class="cls-1" d="M1681,303.07c0-16.55,12.41-28.24,29.89-28.24,10.76,0,19.35,4.44,23.59,12.82l-9.93,5.8a15.63,15.63,0,0,0-13.76-7.66c-9.52,0-16.76,6.62-16.76,17.28s7.24,17.27,16.76,17.27a15.63,15.63,0,0,0,13.76-7.66l9.93,5.8c-4.24,8.27-12.83,12.93-23.59,12.93C1693.38,331.41,1681,319.62,1681,303.07Z"/><path class="cls-1" d="M1741.9,313.41V253.93h12.93v58.55c0,5.38,2.58,8.27,7.75,8.27a11.44,11.44,0,0,0,4.66-1l.62,10.34a22.29,22.29,0,0,1-7.76,1.35C1748.62,331.41,1741.9,324.89,1741.9,313.41Z"/><path class="cls-1" d="M1771.69,258.59c0-4.35,3.51-7.76,8.27-7.76s8.28,3.21,8.28,7.45a7.94,7.94,0,0,1-8.28,8.06C1775.2,266.34,1771.69,262.93,1771.69,258.59Zm1.76,16.86h12.93v55.23h-12.93Z"/><path class="cls-1" d="M1795.58,303.07c0-16.55,12.41-28.24,29.89-28.24,10.76,0,19.35,4.44,23.59,12.82l-9.93,5.8a15.63,15.63,0,0,0-13.76-7.66c-9.51,0-16.76,6.62-16.76,17.28s7.25,17.27,16.76,17.27a15.63,15.63,0,0,0,13.76-7.66l9.93,5.8c-4.24,8.27-12.83,12.93-23.59,12.93C1808,331.41,1795.58,319.62,1795.58,303.07Z"/><path class="cls-1" d="M1879.06,307l-9.62,9.1v14.58h-12.93V253.93h12.93v46.34l26.79-24.82h15.52l-23.07,23.17,25.24,32.06H1898.2Z"/></g></svg>