<?xml version="1.0" encoding="UTF-8"?>
<svg id="Capa_2" data-name="Capa 2" xmlns="http://www.w3.org/2000/svg" viewBox="0 0 792.27 129.09">
  <defs>
    <style>
      .cls-1 {
        fill: #080612;
      }
    </style>
  </defs>
  <g id="Capa_1-2" data-name="Capa 1">
    <g id="Logo">
      <path class="cls-1" d="M112.75,124.42h-35.01l-2.33-6.54c-6.77,6.54-16.81,11.2-32.45,11.2-25.44,0-42.95-12.61-42.95-37.35,0-51.82,75.4-29.41,75.4-49.95,0-4.44-3.97-7.7-13.07-7.7s-13.54,3.27-13.54,7.24H9.34C9.34,8.17,38.05,0,61.63,0s51.12,8.17,51.12,41.08c0,50.65-75.86,27.54-75.86,50.65,0,5.84,4.9,9.1,12.84,9.1,12.84,0,27.78-21.48,43.42-21.48,13.31,0,19.61,6.3,19.61,19.37v25.68Z"/>
      <path class="cls-1" d="M236,4.67l-39.45,119.75h-37.35L119.75,4.67h39.22l18.91,60.23,18.91-60.23h39.22Z"/>
      <path class="cls-1" d="M346.42,124.42h-35.01l-2.33-6.54c-6.77,6.54-16.81,11.2-32.45,11.2-25.44,0-42.95-12.61-42.95-37.35,0-51.82,75.4-29.41,75.4-49.95,0-4.44-3.97-7.7-13.07-7.7s-13.54,3.27-13.54,7.24h-39.45c0-33.15,28.71-41.32,52.29-41.32s51.12,8.17,51.12,41.08c0,50.65-75.87,27.54-75.87,50.65,0,5.84,4.9,9.1,12.84,9.1,12.84,0,27.78-21.48,43.42-21.48,13.31,0,19.61,6.3,19.61,19.37v25.68Z"/>
      <path class="cls-1" d="M474.34,124.89h-37.35V59.29c0-15.64-8.17-23.58-20.78-23.58s-20.77,7.7-20.77,22.64v66.06h-37.35V4.67h35.01l2.33,7c7.94-7.94,19.14-11.67,32.45-11.67,28.01,0,46.45,16.57,46.45,55.09v69.8Z"/>
      <path class="cls-1" d="M486.01,4.67h116.25v37.35l-57.89,45.05h57.89v37.35h-116.25v-37.35l57.89-45.05h-57.89V4.67Z"/>
      <path class="cls-1" d="M613.93,124.42V4.67h37.35v119.75h-37.35Z"/>
      <path class="cls-1" d="M727.61,0C689.1,0,662.95,25.91,662.95,64.66s26.14,64.43,64.66,64.43,64.66-25.91,64.66-64.43S766.13,0,727.61,0ZM700.68,94.2c2.33-2.88,10.51-13.66,10.34-29.65-.18-16.18-8.81-26.87-11.2-29.65,20.55,10.07,41.11,20.14,61.66,30.21-20.27,9.7-40.53,19.39-60.8,29.09Z"/>
    </g>
  </g>
</svg>